<svg width="84" height="17" viewBox="0 0 84 17" fill="none" xmlns="http://www.w3.org/2000/svg">
<g clip-path="url(#clip0_0_260)">
<path d="M24.984 4.54H27.948C29.316 4.54 30.376 4.908 31.128 5.644C31.88 6.38 32.256 7.42 32.256 8.764C32.256 10.108 31.88 11.152 31.128 11.896C30.376 12.632 29.316 13 27.948 13H24.984V4.54ZM27.876 11.968C29.956 11.968 30.996 10.9 30.996 8.764C30.996 6.636 29.956 5.572 27.876 5.572H26.22V11.968H27.876ZM36.2411 7C37.0251 7 37.6051 7.196 37.9811 7.588C38.3651 7.98 38.5571 8.576 38.5571 9.376V13H37.3931V12.028C37.2411 12.372 37.0131 12.636 36.7091 12.82C36.4131 12.996 36.0651 13.084 35.6651 13.084C35.2811 13.084 34.9291 13.008 34.6091 12.856C34.2891 12.696 34.0371 12.476 33.8531 12.196C33.6771 11.916 33.5891 11.604 33.5891 11.26C33.5891 10.836 33.6971 10.504 33.9131 10.264C34.1371 10.016 34.5011 9.84 35.0051 9.736C35.5171 9.632 36.2171 9.58 37.1051 9.58H37.3811V9.232C37.3811 8.784 37.2851 8.46 37.0931 8.26C36.9091 8.06 36.6051 7.96 36.1811 7.96C35.5171 7.96 34.8531 8.164 34.1891 8.572L33.8291 7.72C34.1411 7.504 34.5171 7.332 34.9571 7.204C35.4051 7.068 35.8331 7 36.2411 7ZM35.8811 12.184C36.3211 12.184 36.6811 12.036 36.9611 11.74C37.2411 11.436 37.3811 11.048 37.3811 10.576V10.264H37.1651C36.5411 10.264 36.0611 10.292 35.7251 10.348C35.3891 10.404 35.1491 10.5 35.0051 10.636C34.8611 10.764 34.7891 10.952 34.7891 11.2C34.7891 11.48 34.8891 11.716 35.0891 11.908C35.2971 12.092 35.5611 12.184 35.8811 12.184ZM43.779 8.02L43.047 8.092C42.471 8.148 42.055 8.324 41.799 8.62C41.551 8.916 41.427 9.292 41.427 9.748V13H40.215V7.144H41.391V8.164C41.703 7.476 42.339 7.096 43.299 7.024L43.695 7L43.779 8.02ZM50.1295 13H48.5935L45.8215 10.24V13H44.6095V4.54H45.8215V9.784L48.3895 7.156H49.8895L47.1175 9.964L50.1295 13ZM61.2448 4.54H62.2288V13H61.1128L61.1248 6.88L58.6048 11.644H57.7648L55.2328 6.94L55.2448 13H54.1288V4.54H55.1248L58.1968 10.396L61.2448 4.54ZM66.6067 13.084C66.0307 13.084 65.5227 12.96 65.0827 12.712C64.6507 12.464 64.3147 12.112 64.0747 11.656C63.8427 11.192 63.7267 10.656 63.7267 10.048C63.7267 9.432 63.8427 8.896 64.0747 8.44C64.3147 7.976 64.6507 7.62 65.0827 7.372C65.5227 7.124 66.0307 7 66.6067 7C67.1827 7 67.6867 7.124 68.1187 7.372C68.5587 7.62 68.8947 7.976 69.1267 8.44C69.3667 8.896 69.4867 9.432 69.4867 10.048C69.4867 10.656 69.3667 11.192 69.1267 11.656C68.8947 12.112 68.5587 12.464 68.1187 12.712C67.6867 12.96 67.1827 13.084 66.6067 13.084ZM66.6067 12.124C67.1427 12.124 67.5507 11.948 67.8307 11.596C68.1187 11.244 68.2627 10.728 68.2627 10.048C68.2627 9.376 68.1187 8.864 67.8307 8.512C67.5427 8.152 67.1347 7.972 66.6067 7.972C66.0787 7.972 65.6707 8.152 65.3827 8.512C65.0947 8.864 64.9507 9.376 64.9507 10.048C64.9507 10.728 65.0907 11.244 65.3707 11.596C65.6587 11.948 66.0707 12.124 66.6067 12.124ZM76.2361 4.54V13H75.0361V11.992C74.8601 12.344 74.6041 12.616 74.2681 12.808C73.9321 12.992 73.5441 13.084 73.1041 13.084C72.6001 13.084 72.1481 12.956 71.7481 12.7C71.3561 12.444 71.0481 12.084 70.8241 11.62C70.6081 11.156 70.5001 10.624 70.5001 10.024C70.5001 9.416 70.6081 8.884 70.8241 8.428C71.0481 7.972 71.3561 7.62 71.7481 7.372C72.1401 7.124 72.5921 7 73.1041 7C73.5441 7 73.9281 7.096 74.2561 7.288C74.5921 7.472 74.8481 7.736 75.0241 8.08V4.54H76.2361ZM73.3921 12.124C73.9201 12.124 74.3241 11.944 74.6041 11.584C74.8921 11.224 75.0361 10.712 75.0361 10.048C75.0361 9.384 74.8921 8.872 74.6041 8.512C74.3241 8.152 73.9201 7.972 73.3921 7.972C72.8641 7.972 72.4521 8.152 72.1561 8.512C71.8681 8.864 71.7241 9.368 71.7241 10.024C71.7241 10.68 71.8721 11.196 72.1681 11.572C72.4641 11.94 72.8721 12.124 73.3921 12.124ZM82.9419 10.276H78.8019C78.8899 11.516 79.5059 12.136 80.6499 12.136C81.3219 12.136 81.9299 11.916 82.4739 11.476L82.8459 12.328C82.5739 12.56 82.2379 12.744 81.8379 12.88C81.4379 13.016 81.0299 13.084 80.6139 13.084C79.6779 13.084 78.9379 12.816 78.3939 12.28C77.8579 11.744 77.5899 11.004 77.5899 10.06C77.5899 9.46 77.7059 8.928 77.9379 8.464C78.1779 8 78.5099 7.64 78.9339 7.384C79.3659 7.128 79.8539 7 80.3979 7C81.1899 7 81.8099 7.256 82.2579 7.768C82.7139 8.28 82.9419 8.988 82.9419 9.892V10.276ZM80.4219 7.888C79.9579 7.888 79.5859 8.036 79.3059 8.332C79.0339 8.62 78.8699 9.036 78.8139 9.58H81.8979C81.8739 9.036 81.7339 8.62 81.4779 8.332C81.2299 8.036 80.8779 7.888 80.4219 7.888Z" fill="#111517"/>
<path fill-rule="evenodd" clip-rule="evenodd" d="M10.8426 11.052C7.73486 11.052 5.21543 8.74226 5.21543 5.89457C5.21543 4.82024 5.57343 3.82526 6.18514 3C3.75229 3.75612 2 5.86498 2 8.35045C2 11.4708 4.75943 14 8.16286 14C10.8743 14 13.1757 12.3945 14 10.1636C13.1 10.7238 12.0129 11.052 10.8426 11.052Z" fill="white" stroke="#111517"/>
</g>
<defs>
<clipPath id="clip0_0_260">
<rect width="84" height="17" fill="white"/>
</clipPath>
</defs>
</svg>
